<svg width="298" height="25" viewBox="0 0 298 25" fill="none" xmlns="http://www.w3.org/2000/svg">
<path d="M12.5 0C5.59641 0 0 5.59641 0 12.5C0 19.4036 5.59641 25 12.5 25C19.4036 25 25 19.4036 25 12.5C25 5.59641 19.4036 0 12.5 0ZM18.1316 6.94444L12.4954 11.4002L6.67581 6.94444H18.1316ZM18.7115 18.0556H6.09572V8.82627L11.911 13.2372C12.0669 13.3564 12.2976 13.416 12.4836 13.416C12.674 13.416 12.8392 13.3535 12.9969 13.2289L18.7115 8.6831V18.0556Z" fill="url(#paint0_linear)"/>
<path d="M47.526 17.104V18H40.596V8.2H47.316V9.096H41.632V12.582H46.7V13.464H41.632V17.104H47.526ZM58.9352 10.58C59.8592 10.58 60.5826 10.846 61.1052 11.378C61.6372 11.91 61.9032 12.694 61.9032 13.73V18H60.9092V13.828C60.9092 13.0627 60.7226 12.4793 60.3492 12.078C59.9852 11.6767 59.4672 11.476 58.7952 11.476C58.0299 11.476 57.4279 11.714 56.9892 12.19C56.5506 12.6567 56.3312 13.3053 56.3312 14.136V18H55.3372V13.828C55.3372 13.0627 55.1506 12.4793 54.7772 12.078C54.4132 11.6767 53.8906 11.476 53.2092 11.476C52.4532 11.476 51.8512 11.714 51.4032 12.19C50.9646 12.6567 50.7452 13.3053 50.7452 14.136V18H49.7512V10.636H50.7032V11.98C50.9646 11.532 51.3286 11.1867 51.7952 10.944C52.2619 10.7013 52.7986 10.58 53.4052 10.58C54.0212 10.58 54.5532 10.7107 55.0012 10.972C55.4586 11.2333 55.7992 11.6207 56.0232 12.134C56.2939 11.6487 56.6812 11.2707 57.1852 11C57.6986 10.72 58.2819 10.58 58.9352 10.58ZM67.1749 10.58C68.1362 10.58 68.8736 10.8227 69.3869 11.308C69.9002 11.784 70.1569 12.4933 70.1569 13.436V18H69.2049V16.852C68.9809 17.2347 68.6496 17.5333 68.2109 17.748C67.7816 17.9627 67.2682 18.07 66.6709 18.07C65.8496 18.07 65.1962 17.874 64.7109 17.482C64.2256 17.09 63.9829 16.572 63.9829 15.928C63.9829 15.3027 64.2069 14.7987 64.6549 14.416C65.1122 14.0333 65.8356 13.842 66.8249 13.842H69.1629V13.394C69.1629 12.7593 68.9856 12.2787 68.6309 11.952C68.2762 11.616 67.7582 11.448 67.0769 11.448C66.6102 11.448 66.1622 11.5273 65.7329 11.686C65.3036 11.8353 64.9349 12.0453 64.6269 12.316L64.1789 11.574C64.5522 11.2567 65.0002 11.014 65.5229 10.846C66.0456 10.6687 66.5962 10.58 67.1749 10.58ZM66.8249 17.286C67.3849 17.286 67.8656 17.16 68.2669 16.908C68.6682 16.6467 68.9669 16.2733 69.1629 15.788V14.584H66.8529C65.5929 14.584 64.9629 15.0227 64.9629 15.9C64.9629 16.3293 65.1262 16.67 65.4529 16.922C65.7796 17.1647 66.2369 17.286 66.8249 17.286ZM72.8567 10.636H73.8507V18H72.8567V10.636ZM73.3607 9.026C73.1554 9.026 72.9827 8.956 72.8427 8.816C72.7027 8.676 72.6327 8.508 72.6327 8.312C72.6327 8.12533 72.7027 7.962 72.8427 7.822C72.9827 7.682 73.1554 7.612 73.3607 7.612C73.566 7.612 73.7387 7.682 73.8787 7.822C74.0187 7.95267 74.0887 8.11133 74.0887 8.298C74.0887 8.50333 74.0187 8.676 73.8787 8.816C73.7387 8.956 73.566 9.026 73.3607 9.026ZM76.6165 7.612H77.6105V18H76.6165V7.612ZM83.4943 13.772H87.1623V14.64H83.4943V13.772ZM95.6261 10.58C96.5874 10.58 97.3247 10.8227 97.8381 11.308C98.3514 11.784 98.6081 12.4933 98.6081 13.436V18H97.6561V16.852C97.4321 17.2347 97.1007 17.5333 96.6621 17.748C96.2327 17.9627 95.7194 18.07 95.1221 18.07C94.3007 18.07 93.6474 17.874 93.1621 17.482C92.6767 17.09 92.4341 16.572 92.4341 15.928C92.4341 15.3027 92.6581 14.7987 93.1061 14.416C93.5634 14.0333 94.2867 13.842 95.2761 13.842H97.6141V13.394C97.6141 12.7593 97.4367 12.2787 97.0821 11.952C96.7274 11.616 96.2094 11.448 95.5281 11.448C95.0614 11.448 94.6134 11.5273 94.1841 11.686C93.7547 11.8353 93.3861 12.0453 93.0781 12.316L92.6301 11.574C93.0034 11.2567 93.4514 11.014 93.9741 10.846C94.4967 10.6687 95.0474 10.58 95.6261 10.58ZM95.2761 17.286C95.8361 17.286 96.3167 17.16 96.7181 16.908C97.1194 16.6467 97.4181 16.2733 97.6141 15.788V14.584H95.3041C94.0441 14.584 93.4141 15.0227 93.4141 15.9C93.4141 16.3293 93.5774 16.67 93.9041 16.922C94.2307 17.1647 94.6881 17.286 95.2761 17.286ZM105.06 10.58C105.984 10.58 106.717 10.8507 107.258 11.392C107.809 11.924 108.084 12.7033 108.084 13.73V18H107.09V13.828C107.09 13.0627 106.899 12.4793 106.516 12.078C106.133 11.6767 105.587 11.476 104.878 11.476C104.085 11.476 103.455 11.714 102.988 12.19C102.531 12.6567 102.302 13.3053 102.302 14.136V18H101.308V10.636H102.26V11.994C102.531 11.546 102.904 11.2007 103.38 10.958C103.865 10.706 104.425 10.58 105.06 10.58ZM113.358 10.58C114.32 10.58 115.057 10.8227 115.57 11.308C116.084 11.784 116.34 12.4933 116.34 13.436V18H115.388V16.852C115.164 17.2347 114.833 17.5333 114.394 17.748C113.965 17.9627 113.452 18.07 112.854 18.07C112.033 18.07 111.38 17.874 110.894 17.482C110.409 17.09 110.166 16.572 110.166 15.928C110.166 15.3027 110.39 14.7987 110.838 14.416C111.296 14.0333 112.019 13.842 113.008 13.842H115.346V13.394C115.346 12.7593 115.169 12.2787 114.814 11.952C114.46 11.616 113.942 11.448 113.26 11.448C112.794 11.448 112.346 11.5273 111.916 11.686C111.487 11.8353 111.118 12.0453 110.81 12.316L110.362 11.574C110.736 11.2567 111.184 11.014 111.706 10.846C112.229 10.6687 112.78 10.58 113.358 10.58ZM113.008 17.286C113.568 17.286 114.049 17.16 114.45 16.908C114.852 16.6467 115.15 16.2733 115.346 15.788V14.584H113.036C111.776 14.584 111.146 15.0227 111.146 15.9C111.146 16.3293 111.31 16.67 111.636 16.922C111.963 17.1647 112.42 17.286 113.008 17.286ZM121.014 18.07C120.417 18.07 119.843 17.986 119.292 17.818C118.751 17.6407 118.326 17.4213 118.018 17.16L118.466 16.376C118.774 16.6187 119.162 16.8193 119.628 16.978C120.095 17.1273 120.58 17.202 121.084 17.202C121.756 17.202 122.251 17.0993 122.568 16.894C122.895 16.6793 123.058 16.3807 123.058 15.998C123.058 15.7273 122.97 15.5173 122.792 15.368C122.615 15.2093 122.391 15.0927 122.12 15.018C121.85 14.934 121.49 14.8547 121.042 14.78C120.445 14.668 119.964 14.556 119.6 14.444C119.236 14.3227 118.924 14.122 118.662 13.842C118.41 13.562 118.284 13.1747 118.284 12.68C118.284 12.064 118.541 11.56 119.054 11.168C119.568 10.776 120.282 10.58 121.196 10.58C121.672 10.58 122.148 10.6453 122.624 10.776C123.1 10.8973 123.492 11.0607 123.8 11.266L123.366 12.064C122.76 11.644 122.036 11.434 121.196 11.434C120.562 11.434 120.081 11.546 119.754 11.77C119.437 11.994 119.278 12.288 119.278 12.652C119.278 12.932 119.367 13.156 119.544 13.324C119.731 13.492 119.96 13.618 120.23 13.702C120.501 13.7767 120.874 13.856 121.35 13.94C121.938 14.052 122.41 14.164 122.764 14.276C123.119 14.388 123.422 14.5793 123.674 14.85C123.926 15.1207 124.052 15.494 124.052 15.97C124.052 16.614 123.782 17.1273 123.24 17.51C122.708 17.8833 121.966 18.07 121.014 18.07ZM129.768 17.552C129.581 17.72 129.348 17.8507 129.068 17.944C128.797 18.028 128.513 18.07 128.214 18.07C127.523 18.07 126.991 17.8833 126.618 17.51C126.245 17.1367 126.058 16.6093 126.058 15.928V11.476H124.742V10.636H126.058V9.026H127.052V10.636H129.292V11.476H127.052V15.872C127.052 16.3107 127.159 16.6467 127.374 16.88C127.598 17.104 127.915 17.216 128.326 17.216C128.531 17.216 128.727 17.1833 128.914 17.118C129.11 17.0527 129.278 16.9593 129.418 16.838L129.768 17.552ZM134.153 10.58C135.115 10.58 135.852 10.8227 136.365 11.308C136.879 11.784 137.135 12.4933 137.135 13.436V18H136.183V16.852C135.959 17.2347 135.628 17.5333 135.189 17.748C134.76 17.9627 134.247 18.07 133.649 18.07C132.828 18.07 132.175 17.874 131.689 17.482C131.204 17.09 130.961 16.572 130.961 15.928C130.961 15.3027 131.185 14.7987 131.633 14.416C132.091 14.0333 132.814 13.842 133.803 13.842H136.141V13.394C136.141 12.7593 135.964 12.2787 135.609 11.952C135.255 11.616 134.737 11.448 134.055 11.448C133.589 11.448 133.141 11.5273 132.711 11.686C132.282 11.8353 131.913 12.0453 131.605 12.316L131.157 11.574C131.531 11.2567 131.979 11.014 132.501 10.846C133.024 10.6687 133.575 10.58 134.153 10.58ZM133.803 17.286C134.363 17.286 134.844 17.16 135.245 16.908C135.647 16.6467 135.945 16.2733 136.141 15.788V14.584H133.831C132.571 14.584 131.941 15.0227 131.941 15.9C131.941 16.3293 132.105 16.67 132.431 16.922C132.758 17.1647 133.215 17.286 133.803 17.286ZM141.809 18.07C141.212 18.07 140.638 17.986 140.087 17.818C139.546 17.6407 139.121 17.4213 138.813 17.16L139.261 16.376C139.569 16.6187 139.957 16.8193 140.423 16.978C140.89 17.1273 141.375 17.202 141.879 17.202C142.551 17.202 143.046 17.0993 143.363 16.894C143.69 16.6793 143.853 16.3807 143.853 15.998C143.853 15.7273 143.765 15.5173 143.587 15.368C143.41 15.2093 143.186 15.0927 142.915 15.018C142.645 14.934 142.285 14.8547 141.837 14.78C141.24 14.668 140.759 14.556 140.395 14.444C140.031 14.3227 139.719 14.122 139.457 13.842C139.205 13.562 139.079 13.1747 139.079 12.68C139.079 12.064 139.336 11.56 139.849 11.168C140.363 10.776 141.077 10.58 141.991 10.58C142.467 10.58 142.943 10.6453 143.419 10.776C143.895 10.8973 144.287 11.0607 144.595 11.266L144.161 12.064C143.555 11.644 142.831 11.434 141.991 11.434C141.357 11.434 140.876 11.546 140.549 11.77C140.232 11.994 140.073 12.288 140.073 12.652C140.073 12.932 140.162 13.156 140.339 13.324C140.526 13.492 140.755 13.618 141.025 13.702C141.296 13.7767 141.669 13.856 142.145 13.94C142.733 14.052 143.205 14.164 143.559 14.276C143.914 14.388 144.217 14.5793 144.469 14.85C144.721 15.1207 144.847 15.494 144.847 15.97C144.847 16.614 144.577 17.1273 144.035 17.51C143.503 17.8833 142.761 18.07 141.809 18.07ZM146.685 10.636H147.679V18H146.685V10.636ZM147.189 9.026C146.983 9.026 146.811 8.956 146.671 8.816C146.531 8.676 146.461 8.508 146.461 8.312C146.461 8.12533 146.531 7.962 146.671 7.822C146.811 7.682 146.983 7.612 147.189 7.612C147.394 7.612 147.567 7.682 147.707 7.822C147.847 7.95267 147.917 8.11133 147.917 8.298C147.917 8.50333 147.847 8.676 147.707 8.816C147.567 8.956 147.394 9.026 147.189 9.026ZM153.021 10.58C153.982 10.58 154.719 10.8227 155.233 11.308C155.746 11.784 156.003 12.4933 156.003 13.436V18H155.051V16.852C154.827 17.2347 154.495 17.5333 154.057 17.748C153.627 17.9627 153.114 18.07 152.517 18.07C151.695 18.07 151.042 17.874 150.557 17.482C150.071 17.09 149.829 16.572 149.829 15.928C149.829 15.3027 150.053 14.7987 150.501 14.416C150.958 14.0333 151.681 13.842 152.671 13.842H155.009V13.394C155.009 12.7593 154.831 12.2787 154.477 11.952C154.122 11.616 153.604 11.448 152.923 11.448C152.456 11.448 152.008 11.5273 151.579 11.686C151.149 11.8353 150.781 12.0453 150.473 12.316L150.025 11.574C150.398 11.2567 150.846 11.014 151.369 10.846C151.891 10.6687 152.442 10.58 153.021 10.58ZM152.671 17.286C153.231 17.286 153.711 17.16 154.113 16.908C154.514 16.6467 154.813 16.2733 155.009 15.788V14.584H152.699C151.439 14.584 150.809 15.0227 150.809 15.9C150.809 16.3293 150.972 16.67 151.299 16.922C151.625 17.1647 152.083 17.286 152.671 17.286ZM158.8 18.07C158.595 18.07 158.418 17.9953 158.268 17.846C158.128 17.6967 158.058 17.5147 158.058 17.3C158.058 17.0853 158.128 16.908 158.268 16.768C158.418 16.6187 158.595 16.544 158.8 16.544C159.006 16.544 159.183 16.6187 159.332 16.768C159.482 16.908 159.556 17.0853 159.556 17.3C159.556 17.5147 159.482 17.6967 159.332 17.846C159.183 17.9953 159.006 18.07 158.8 18.07ZM161.669 7.612H162.663V18H161.669V7.612ZM171.841 14.626H165.681C165.737 15.3913 166.031 16.012 166.563 16.488C167.095 16.9547 167.767 17.188 168.579 17.188C169.036 17.188 169.456 17.1087 169.839 16.95C170.222 16.782 170.553 16.5393 170.833 16.222L171.393 16.866C171.066 17.258 170.656 17.5567 170.161 17.762C169.676 17.9673 169.139 18.07 168.551 18.07C167.795 18.07 167.123 17.9113 166.535 17.594C165.956 17.2673 165.504 16.8193 165.177 16.25C164.85 15.6807 164.687 15.0367 164.687 14.318C164.687 13.5993 164.841 12.9553 165.149 12.386C165.466 11.8167 165.896 11.3733 166.437 11.056C166.988 10.7387 167.604 10.58 168.285 10.58C168.966 10.58 169.578 10.7387 170.119 11.056C170.66 11.3733 171.085 11.8167 171.393 12.386C171.701 12.946 171.855 13.59 171.855 14.318L171.841 14.626ZM168.285 11.434C167.576 11.434 166.978 11.6627 166.493 12.12C166.017 12.568 165.746 13.156 165.681 13.884H170.903C170.838 13.156 170.562 12.568 170.077 12.12C169.601 11.6627 169.004 11.434 168.285 11.434ZM183.062 10.58C183.986 10.58 184.71 10.846 185.232 11.378C185.764 11.91 186.03 12.694 186.03 13.73V18H185.036V13.828C185.036 13.0627 184.85 12.4793 184.476 12.078C184.112 11.6767 183.594 11.476 182.922 11.476C182.157 11.476 181.555 11.714 181.116 12.19C180.678 12.6567 180.458 13.3053 180.458 14.136V18H179.464V13.828C179.464 13.0627 179.278 12.4793 178.904 12.078C178.54 11.6767 178.018 11.476 177.336 11.476C176.58 11.476 175.978 11.714 175.53 12.19C175.092 12.6567 174.872 13.3053 174.872 14.136V18H173.878V10.636H174.83V11.98C175.092 11.532 175.456 11.1867 175.922 10.944C176.389 10.7013 176.926 10.58 177.532 10.58C178.148 10.58 178.68 10.7107 179.128 10.972C179.586 11.2333 179.926 11.6207 180.15 12.134C180.421 11.6487 180.808 11.2707 181.312 11C181.826 10.72 182.409 10.58 183.062 10.58ZM195.165 14.626H189.005C189.061 15.3913 189.355 16.012 189.887 16.488C190.419 16.9547 191.091 17.188 191.903 17.188C192.361 17.188 192.781 17.1087 193.163 16.95C193.546 16.782 193.877 16.5393 194.157 16.222L194.717 16.866C194.391 17.258 193.98 17.5567 193.485 17.762C193 17.9673 192.463 18.07 191.875 18.07C191.119 18.07 190.447 17.9113 189.859 17.594C189.281 17.2673 188.828 16.8193 188.501 16.25C188.175 15.6807 188.011 15.0367 188.011 14.318C188.011 13.5993 188.165 12.9553 188.473 12.386C188.791 11.8167 189.22 11.3733 189.761 11.056C190.312 10.7387 190.928 10.58 191.609 10.58C192.291 10.58 192.902 10.7387 193.443 11.056C193.985 11.3733 194.409 11.8167 194.717 12.386C195.025 12.946 195.179 13.59 195.179 14.318L195.165 14.626ZM191.609 11.434C190.9 11.434 190.303 11.6627 189.817 12.12C189.341 12.568 189.071 13.156 189.005 13.884H194.227C194.162 13.156 193.887 12.568 193.401 12.12C192.925 11.6627 192.328 11.434 191.609 11.434ZM199.176 18.07C198.579 18.07 198.005 17.986 197.454 17.818C196.913 17.6407 196.488 17.4213 196.18 17.16L196.628 16.376C196.936 16.6187 197.324 16.8193 197.79 16.978C198.257 17.1273 198.742 17.202 199.246 17.202C199.918 17.202 200.413 17.0993 200.73 16.894C201.057 16.6793 201.22 16.3807 201.22 15.998C201.22 15.7273 201.132 15.5173 200.954 15.368C200.777 15.2093 200.553 15.0927 200.282 15.018C200.012 14.934 199.652 14.8547 199.204 14.78C198.607 14.668 198.126 14.556 197.762 14.444C197.398 14.3227 197.086 14.122 196.824 13.842C196.572 13.562 196.446 13.1747 196.446 12.68C196.446 12.064 196.703 11.56 197.216 11.168C197.73 10.776 198.444 10.58 199.358 10.58C199.834 10.58 200.31 10.6453 200.786 10.776C201.262 10.8973 201.654 11.0607 201.962 11.266L201.528 12.064C200.922 11.644 200.198 11.434 199.358 11.434C198.724 11.434 198.243 11.546 197.916 11.77C197.599 11.994 197.44 12.288 197.44 12.652C197.44 12.932 197.529 13.156 197.706 13.324C197.893 13.492 198.122 13.618 198.392 13.702C198.663 13.7767 199.036 13.856 199.512 13.94C200.1 14.052 200.572 14.164 200.926 14.276C201.281 14.388 201.584 14.5793 201.836 14.85C202.088 15.1207 202.214 15.494 202.214 15.97C202.214 16.614 201.944 17.1273 201.402 17.51C200.87 17.8833 200.128 18.07 199.176 18.07ZM207.804 10.58C208.728 10.58 209.461 10.8507 210.002 11.392C210.553 11.924 210.828 12.7033 210.828 13.73V18H209.834V13.828C209.834 13.0627 209.643 12.4793 209.26 12.078C208.877 11.6767 208.331 11.476 207.622 11.476C206.829 11.476 206.199 11.714 205.732 12.19C205.275 12.6567 205.046 13.3053 205.046 14.136V18H204.052V7.612H205.046V11.924C205.317 11.4947 205.69 11.1633 206.166 10.93C206.642 10.6967 207.188 10.58 207.804 10.58ZM216.257 14.304L214.521 15.9V18H213.527V7.612H214.521V14.654L218.917 10.636H220.149L216.999 13.646L220.443 18H219.225L216.257 14.304ZM224.644 18.07C223.935 18.07 223.295 17.9113 222.726 17.594C222.157 17.2673 221.709 16.8193 221.382 16.25C221.055 15.6807 220.892 15.0367 220.892 14.318C220.892 13.5993 221.055 12.9553 221.382 12.386C221.709 11.8167 222.157 11.3733 222.726 11.056C223.295 10.7387 223.935 10.58 224.644 10.58C225.353 10.58 225.993 10.7387 226.562 11.056C227.131 11.3733 227.575 11.8167 227.892 12.386C228.219 12.9553 228.382 13.5993 228.382 14.318C228.382 15.0367 228.219 15.6807 227.892 16.25C227.575 16.8193 227.131 17.2673 226.562 17.594C225.993 17.9113 225.353 18.07 224.644 18.07ZM224.644 17.188C225.167 17.188 225.633 17.0713 226.044 16.838C226.464 16.5953 226.791 16.2547 227.024 15.816C227.257 15.3773 227.374 14.878 227.374 14.318C227.374 13.758 227.257 13.2587 227.024 12.82C226.791 12.3813 226.464 12.0453 226.044 11.812C225.633 11.5693 225.167 11.448 224.644 11.448C224.121 11.448 223.65 11.5693 223.23 11.812C222.819 12.0453 222.493 12.3813 222.25 12.82C222.017 13.2587 221.9 13.758 221.9 14.318C221.9 14.878 222.017 15.3773 222.25 15.816C222.493 16.2547 222.819 16.5953 223.23 16.838C223.65 17.0713 224.121 17.188 224.644 17.188ZM236.291 8.116C237.542 8.116 238.657 8.37733 239.637 8.9C240.627 9.41333 241.397 10.1413 241.947 11.084C242.498 12.0173 242.773 13.086 242.773 14.29C242.773 15.4753 242.568 16.404 242.157 17.076C241.747 17.7387 241.177 18.07 240.449 18.07C239.992 18.07 239.619 17.9347 239.329 17.664C239.049 17.3933 238.895 17.02 238.867 16.544C238.587 17.0293 238.205 17.4073 237.719 17.678C237.234 17.9393 236.683 18.07 236.067 18.07C235.414 18.07 234.821 17.916 234.289 17.608C233.767 17.2907 233.351 16.8567 233.043 16.306C232.745 15.7553 232.595 15.1347 232.595 14.444C232.595 13.7533 232.745 13.1373 233.043 12.596C233.351 12.0453 233.767 11.616 234.289 11.308C234.821 11 235.414 10.846 236.067 10.846C236.665 10.846 237.201 10.9767 237.677 11.238C238.163 11.49 238.55 11.8493 238.839 12.316V10.902H239.749V16.208C239.749 16.5813 239.829 16.852 239.987 17.02C240.146 17.188 240.356 17.272 240.617 17.272C241.056 17.272 241.401 17.0107 241.653 16.488C241.915 15.9653 242.045 15.2373 242.045 14.304C242.045 13.2213 241.803 12.2693 241.317 11.448C240.832 10.6173 240.151 9.97333 239.273 9.516C238.405 9.05867 237.411 8.83 236.291 8.83C235.162 8.83 234.159 9.068 233.281 9.544C232.413 10.0107 231.737 10.6733 231.251 11.532C230.766 12.3813 230.523 13.352 230.523 14.444C230.523 15.536 230.761 16.5113 231.237 17.37C231.723 18.2287 232.395 18.896 233.253 19.372C234.121 19.848 235.115 20.086 236.235 20.086C236.674 20.086 237.131 20.0347 237.607 19.932C238.093 19.8293 238.531 19.6753 238.923 19.47L239.161 20.156C238.76 20.3613 238.293 20.52 237.761 20.632C237.239 20.744 236.73 20.8 236.235 20.8C234.966 20.8 233.841 20.5293 232.861 19.988C231.881 19.4467 231.116 18.6953 230.565 17.734C230.024 16.7633 229.753 15.6667 229.753 14.444C229.753 13.212 230.029 12.12 230.579 11.168C231.13 10.2067 231.9 9.46 232.889 8.928C233.888 8.38667 235.022 8.116 236.291 8.116ZM236.193 17.258C236.697 17.258 237.15 17.1413 237.551 16.908C237.953 16.6747 238.27 16.348 238.503 15.928C238.737 15.4987 238.853 15.004 238.853 14.444C238.853 13.8933 238.737 13.408 238.503 12.988C238.27 12.5587 237.953 12.232 237.551 12.008C237.15 11.7747 236.697 11.658 236.193 11.658C235.68 11.658 235.218 11.7747 234.807 12.008C234.406 12.2413 234.089 12.568 233.855 12.988C233.631 13.408 233.519 13.8933 233.519 14.444C233.519 14.9947 233.631 15.4847 233.855 15.914C234.089 16.334 234.406 16.6653 234.807 16.908C235.218 17.1413 235.68 17.258 236.193 17.258ZM254.06 10.58C254.984 10.58 255.708 10.846 256.23 11.378C256.762 11.91 257.028 12.694 257.028 13.73V18H256.034V13.828C256.034 13.0627 255.848 12.4793 255.474 12.078C255.11 11.6767 254.592 11.476 253.92 11.476C253.155 11.476 252.553 11.714 252.114 12.19C251.676 12.6567 251.456 13.3053 251.456 14.136V18H250.462V13.828C250.462 13.0627 250.276 12.4793 249.902 12.078C249.538 11.6767 249.016 11.476 248.334 11.476C247.578 11.476 246.976 11.714 246.528 12.19C246.09 12.6567 245.87 13.3053 245.87 14.136V18H244.876V10.636H245.828V11.98C246.09 11.532 246.454 11.1867 246.92 10.944C247.387 10.7013 247.924 10.58 248.53 10.58C249.146 10.58 249.678 10.7107 250.126 10.972C250.584 11.2333 250.924 11.6207 251.148 12.134C251.419 11.6487 251.806 11.2707 252.31 11C252.824 10.72 253.407 10.58 254.06 10.58ZM262.3 10.58C263.261 10.58 263.999 10.8227 264.512 11.308C265.025 11.784 265.282 12.4933 265.282 13.436V18H264.33V16.852C264.106 17.2347 263.775 17.5333 263.336 17.748C262.907 17.9627 262.393 18.07 261.796 18.07C260.975 18.07 260.321 17.874 259.836 17.482C259.351 17.09 259.108 16.572 259.108 15.928C259.108 15.3027 259.332 14.7987 259.78 14.416C260.237 14.0333 260.961 13.842 261.95 13.842H264.288V13.394C264.288 12.7593 264.111 12.2787 263.756 11.952C263.401 11.616 262.883 11.448 262.202 11.448C261.735 11.448 261.287 11.5273 260.858 11.686C260.429 11.8353 260.06 12.0453 259.752 12.316L259.304 11.574C259.677 11.2567 260.125 11.014 260.648 10.846C261.171 10.6687 261.721 10.58 262.3 10.58ZM261.95 17.286C262.51 17.286 262.991 17.16 263.392 16.908C263.793 16.6467 264.092 16.2733 264.288 15.788V14.584H261.978C260.718 14.584 260.088 15.0227 260.088 15.9C260.088 16.3293 260.251 16.67 260.578 16.922C260.905 17.1647 261.362 17.286 261.95 17.286ZM267.982 10.636H268.976V18H267.982V10.636ZM268.486 9.026C268.28 9.026 268.108 8.956 267.968 8.816C267.828 8.676 267.758 8.508 267.758 8.312C267.758 8.12533 267.828 7.962 267.968 7.822C268.108 7.682 268.28 7.612 268.486 7.612C268.691 7.612 268.864 7.682 269.004 7.822C269.144 7.95267 269.214 8.11133 269.214 8.298C269.214 8.50333 269.144 8.676 269.004 8.816C268.864 8.956 268.691 9.026 268.486 9.026ZM271.741 7.612H272.735V18H271.741V7.612ZM275.599 18.07C275.394 18.07 275.217 17.9953 275.067 17.846C274.927 17.6967 274.857 17.5147 274.857 17.3C274.857 17.0853 274.927 16.908 275.067 16.768C275.217 16.6187 275.394 16.544 275.599 16.544C275.805 16.544 275.982 16.6187 276.131 16.768C276.281 16.908 276.355 17.0853 276.355 17.3C276.355 17.5147 276.281 17.6967 276.131 17.846C275.982 17.9953 275.805 18.07 275.599 18.07ZM279.42 12.078C279.653 11.5833 279.999 11.21 280.456 10.958C280.923 10.706 281.497 10.58 282.178 10.58V11.546L281.94 11.532C281.165 11.532 280.559 11.77 280.12 12.246C279.681 12.722 279.462 13.3893 279.462 14.248V18H278.468V10.636H279.42V12.078ZM290.723 10.636V18H289.771V16.656C289.51 17.104 289.151 17.454 288.693 17.706C288.236 17.9487 287.713 18.07 287.125 18.07C286.164 18.07 285.403 17.804 284.843 17.272C284.293 16.7307 284.017 15.942 284.017 14.906V10.636H285.011V14.808C285.011 15.5827 285.203 16.1707 285.585 16.572C285.968 16.9733 286.514 17.174 287.223 17.174C287.998 17.174 288.609 16.9407 289.057 16.474C289.505 15.998 289.729 15.34 289.729 14.5V10.636H290.723Z" fill="white"/>
<defs>
<linearGradient id="paint0_linear" x1="9.125" y1="4.6875" x2="27.1875" y2="27.4375" gradientUnits="userSpaceOnUse">
<stop stop-color="#F0CA99"/>
<stop offset="1" stop-color="#F8F0D6"/>
</linearGradient>
</defs>
</svg>
