<svg width="25" height="25" viewBox="0 0 25 25" fill="none" xmlns="http://www.w3.org/2000/svg">
<g clip-path="url(#clip0)">
<path d="M12.5 0.520752C5.59375 0.520752 0 6.02075 0 12.8041C0 18.2322 3.58125 22.8353 8.54688 24.4583C9.17188 24.5739 9.40104 24.1937 9.40104 23.8676C9.40104 23.576 9.39062 22.803 9.38542 21.7791C5.90833 22.5197 5.175 20.1312 5.175 20.1312C4.60625 18.7135 3.78437 18.3343 3.78437 18.3343C2.65208 17.5728 3.87187 17.5885 3.87187 17.5885C5.12708 17.6739 5.78646 18.8541 5.78646 18.8541C6.90104 20.7322 8.7125 20.1895 9.42708 19.876C9.53958 19.0812 9.86146 18.5405 10.2188 18.2333C7.44271 17.926 4.525 16.8697 4.525 12.1635C4.525 10.8228 5.00937 9.727 5.81146 8.86763C5.67083 8.55721 5.24896 7.30825 5.92083 5.61659C5.92083 5.61659 6.96771 5.28742 9.35833 6.87596C10.3583 6.60304 11.4208 6.46763 12.4833 6.46138C13.5458 6.46763 14.6083 6.60304 15.6083 6.87596C17.9833 5.28742 19.0302 5.61659 19.0302 5.61659C19.7021 7.30825 19.2802 8.55721 19.1552 8.86763C19.9521 9.727 20.4365 10.8228 20.4365 12.1635C20.4365 16.8822 17.5146 17.9208 14.7333 18.2228C15.1708 18.5916 15.5771 19.3447 15.5771 20.4958C15.5771 22.1395 15.5615 23.4603 15.5615 23.8593C15.5615 24.1812 15.7802 24.5655 16.4208 24.4426C21.4219 22.8301 25 18.2239 25 12.8041C25 6.02075 19.4031 0.520752 12.5 0.520752Z" fill="url(#paint0_linear)"/>
</g>
<defs>
<linearGradient id="paint0_linear" x1="9.125" y1="5.01301" x2="26.2544" y2="27.5254" gradientUnits="userSpaceOnUse">
<stop stop-color="#F0CA99"/>
<stop offset="1" stop-color="#F8F0D6"/>
</linearGradient>
<clipPath id="clip0">
<rect width="25" height="25" fill="white"/>
</clipPath>
</defs>
</svg>
