<svg width="23" height="37" viewBox="0 0 23 37" fill="none" xmlns="http://www.w3.org/2000/svg">
<path d="M11.5 6.9C11.805 6.9 12.0975 7.02116 12.3132 7.23683C12.5288 7.45249 12.65 7.745 12.65 8.05V12.65C12.65 12.955 12.5288 13.2475 12.3132 13.4632C12.0975 13.6788 11.805 13.8 11.5 13.8C11.195 13.8 10.9025 13.6788 10.6868 13.4632C10.4712 13.2475 10.35 12.955 10.35 12.65V8.05C10.35 7.745 10.4712 7.45249 10.6868 7.23683C10.9025 7.02116 11.195 6.9 11.5 6.9ZM20.7 25.3C20.7 27.74 19.7307 30.08 18.0054 31.8054C16.28 33.5307 13.94 34.5 11.5 34.5C9.06001 34.5 6.71995 33.5307 4.99462 31.8054C3.26928 30.08 2.3 27.74 2.3 25.3V11.5C2.3 9.06001 3.26928 6.71995 4.99462 4.99462C6.71995 3.26928 9.06001 2.3 11.5 2.3C13.94 2.3 16.28 3.26928 18.0054 4.99462C19.7307 6.71995 20.7 9.06001 20.7 11.5V25.3ZM11.5 0C8.45001 0 5.52494 1.2116 3.36827 3.36827C1.2116 5.52494 0 8.45001 0 11.5V25.3C0 28.35 1.2116 31.2751 3.36827 33.4317C5.52494 35.5884 8.45001 36.8 11.5 36.8C14.55 36.8 17.4751 35.5884 19.6317 33.4317C21.7884 31.2751 23 28.35 23 25.3V11.5C23 8.45001 21.7884 5.52494 19.6317 3.36827C17.4751 1.2116 14.55 0 11.5 0V0Z" fill="#292929"/>
</svg>
