<svg width="241" height="25" viewBox="0 0 241 25" fill="none" xmlns="http://www.w3.org/2000/svg">
<path d="M12.5 25C19.4036 25 25 19.4036 25 12.5C25 5.59644 19.4036 0 12.5 0C5.59644 0 0 5.59644 0 12.5C0 19.4036 5.59644 25 12.5 25Z" fill="url(#paint0_linear)"/>
<path d="M5.71994 12.2291L17.772 7.58226C18.3314 7.38018 18.8199 7.71872 18.6387 8.56456L18.6397 8.56351L16.5877 18.2312C16.4356 18.9166 16.0283 19.0833 15.4585 18.7604L12.3335 16.4573L10.8262 17.9093C10.6595 18.076 10.5189 18.2166 10.196 18.2166L10.4179 15.0364L16.2095 9.80414C16.4616 9.58226 16.1533 9.45726 15.821 9.6781L8.66369 14.1843L5.57828 13.2218C4.90848 13.0093 4.8939 12.5521 5.71994 12.2291Z" fill="black"/>
<path d="M41.5 10.096H38.056V9.2H45.98V10.096H42.536V19H41.5V10.096ZM53.0714 15.626H46.9114C46.9674 16.3913 47.2614 17.012 47.7934 17.488C48.3254 17.9547 48.9974 18.188 49.8094 18.188C50.2668 18.188 50.6868 18.1087 51.0694 17.95C51.4521 17.782 51.7834 17.5393 52.0634 17.222L52.6234 17.866C52.2968 18.258 51.8861 18.5567 51.3914 18.762C50.9061 18.9673 50.3694 19.07 49.7814 19.07C49.0254 19.07 48.3534 18.9113 47.7654 18.594C47.1868 18.2673 46.7341 17.8193 46.4074 17.25C46.0808 16.6807 45.9174 16.0367 45.9174 15.318C45.9174 14.5993 46.0714 13.9553 46.3794 13.386C46.6968 12.8167 47.1261 12.3733 47.6674 12.056C48.2181 11.7387 48.8341 11.58 49.5154 11.58C50.1968 11.58 50.8081 11.7387 51.3494 12.056C51.8908 12.3733 52.3154 12.8167 52.6234 13.386C52.9314 13.946 53.0854 14.59 53.0854 15.318L53.0714 15.626ZM49.5154 12.434C48.8061 12.434 48.2088 12.6627 47.7234 13.12C47.2474 13.568 46.9768 14.156 46.9114 14.884H52.1334C52.0681 14.156 51.7928 13.568 51.3074 13.12C50.8314 12.6627 50.2341 12.434 49.5154 12.434ZM55.1087 8.612H56.1027V19H55.1087V8.612ZM65.2804 15.626H59.1204C59.1764 16.3913 59.4704 17.012 60.0024 17.488C60.5344 17.9547 61.2064 18.188 62.0184 18.188C62.4758 18.188 62.8958 18.1087 63.2784 17.95C63.6611 17.782 63.9924 17.5393 64.2724 17.222L64.8324 17.866C64.5058 18.258 64.0951 18.5567 63.6004 18.762C63.1151 18.9673 62.5784 19.07 61.9904 19.07C61.2344 19.07 60.5624 18.9113 59.9744 18.594C59.3958 18.2673 58.9431 17.8193 58.6164 17.25C58.2898 16.6807 58.1264 16.0367 58.1264 15.318C58.1264 14.5993 58.2804 13.9553 58.5884 13.386C58.9058 12.8167 59.3351 12.3733 59.8764 12.056C60.4271 11.7387 61.0431 11.58 61.7244 11.58C62.4058 11.58 63.0171 11.7387 63.5584 12.056C64.0998 12.3733 64.5244 12.8167 64.8324 13.386C65.1404 13.946 65.2944 14.59 65.2944 15.318L65.2804 15.626ZM61.7244 12.434C61.0151 12.434 60.4178 12.6627 59.9324 13.12C59.4564 13.568 59.1858 14.156 59.1204 14.884H64.3424C64.2771 14.156 64.0018 13.568 63.5164 13.12C63.0404 12.6627 62.4431 12.434 61.7244 12.434ZM74.1356 11.636V18.104C74.1356 19.3547 73.8276 20.2787 73.2116 20.876C72.605 21.4827 71.6856 21.786 70.4536 21.786C69.7723 21.786 69.1236 21.6833 68.5076 21.478C67.901 21.282 67.4063 21.0067 67.0236 20.652L67.5276 19.896C67.8823 20.2133 68.3116 20.4607 68.8156 20.638C69.329 20.8153 69.8656 20.904 70.4256 20.904C71.359 20.904 72.045 20.6847 72.4836 20.246C72.9223 19.8167 73.1416 19.1447 73.1416 18.23V17.292C72.8336 17.7587 72.4276 18.1133 71.9236 18.356C71.429 18.5987 70.8783 18.72 70.2716 18.72C69.581 18.72 68.951 18.5707 68.3816 18.272C67.8216 17.964 67.3783 17.5393 67.0516 16.998C66.7343 16.4473 66.5756 15.8267 66.5756 15.136C66.5756 14.4453 66.7343 13.8293 67.0516 13.288C67.3783 12.7467 67.8216 12.3267 68.3816 12.028C68.9416 11.7293 69.5716 11.58 70.2716 11.58C70.897 11.58 71.4616 11.706 71.9656 11.958C72.4696 12.21 72.8756 12.574 73.1836 13.05V11.636H74.1356ZM70.3696 17.838C70.9016 17.838 71.3823 17.726 71.8116 17.502C72.241 17.2687 72.5723 16.9467 72.8056 16.536C73.0483 16.1253 73.1696 15.6587 73.1696 15.136C73.1696 14.6133 73.0483 14.1513 72.8056 13.75C72.5723 13.3393 72.241 13.022 71.8116 12.798C71.3916 12.5647 70.911 12.448 70.3696 12.448C69.8376 12.448 69.357 12.56 68.9276 12.784C68.5076 13.008 68.1763 13.3253 67.9336 13.736C67.7003 14.1467 67.5836 14.6133 67.5836 15.136C67.5836 15.6587 67.7003 16.1253 67.9336 16.536C68.1763 16.9467 68.5076 17.2687 68.9276 17.502C69.357 17.726 69.8376 17.838 70.3696 17.838ZM77.8673 13.078C78.1006 12.5833 78.446 12.21 78.9033 11.958C79.37 11.706 79.944 11.58 80.6253 11.58V12.546L80.3873 12.532C79.6126 12.532 79.006 12.77 78.5673 13.246C78.1286 13.722 77.9093 14.3893 77.9093 15.248V19H76.9153V11.636H77.8673V13.078ZM84.9874 11.58C85.9487 11.58 86.6861 11.8227 87.1994 12.308C87.7127 12.784 87.9694 13.4933 87.9694 14.436V19H87.0174V17.852C86.7934 18.2347 86.4621 18.5333 86.0234 18.748C85.5941 18.9627 85.0807 19.07 84.4834 19.07C83.6621 19.07 83.0087 18.874 82.5234 18.482C82.0381 18.09 81.7954 17.572 81.7954 16.928C81.7954 16.3027 82.0194 15.7987 82.4674 15.416C82.9247 15.0333 83.6481 14.842 84.6374 14.842H86.9754V14.394C86.9754 13.7593 86.7981 13.2787 86.4434 12.952C86.0887 12.616 85.5707 12.448 84.8894 12.448C84.4227 12.448 83.9747 12.5273 83.5454 12.686C83.1161 12.8353 82.7474 13.0453 82.4394 13.316L81.9914 12.574C82.3647 12.2567 82.8127 12.014 83.3354 11.846C83.8581 11.6687 84.4087 11.58 84.9874 11.58ZM84.6374 18.286C85.1974 18.286 85.6781 18.16 86.0794 17.908C86.4807 17.6467 86.7794 17.2733 86.9754 16.788V15.584H84.6654C83.4054 15.584 82.7754 16.0227 82.7754 16.9C82.7754 17.3293 82.9387 17.67 83.2654 17.922C83.5921 18.1647 84.0494 18.286 84.6374 18.286ZM99.8532 11.58C100.777 11.58 101.501 11.846 102.023 12.378C102.555 12.91 102.821 13.694 102.821 14.73V19H101.827V14.828C101.827 14.0627 101.641 13.4793 101.267 13.078C100.903 12.6767 100.385 12.476 99.7132 12.476C98.9479 12.476 98.3459 12.714 97.9072 13.19C97.4685 13.6567 97.2492 14.3053 97.2492 15.136V19H96.2552V14.828C96.2552 14.0627 96.0685 13.4793 95.6952 13.078C95.3312 12.6767 94.8085 12.476 94.1272 12.476C93.3712 12.476 92.7692 12.714 92.3212 13.19C91.8825 13.6567 91.6632 14.3053 91.6632 15.136V19H90.6692V11.636H91.6212V12.98C91.8825 12.532 92.2465 12.1867 92.7132 11.944C93.1799 11.7013 93.7165 11.58 94.3232 11.58C94.9392 11.58 95.4712 11.7107 95.9192 11.972C96.3765 12.2333 96.7172 12.6207 96.9412 13.134C97.2119 12.6487 97.5992 12.2707 98.1032 12C98.6165 11.72 99.1999 11.58 99.8532 11.58ZM108.635 14.772H112.303V15.64H108.635V14.772ZM121.943 11.58C122.867 11.58 123.599 11.8507 124.141 12.392C124.691 12.924 124.967 13.7033 124.967 14.73V19H123.973V14.828C123.973 14.0627 123.781 13.4793 123.399 13.078C123.016 12.6767 122.47 12.476 121.761 12.476C120.967 12.476 120.337 12.714 119.871 13.19C119.413 13.6567 119.185 14.3053 119.185 15.136V19H118.191V11.636H119.143V12.994C119.413 12.546 119.787 12.2007 120.263 11.958C120.748 11.706 121.308 11.58 121.943 11.58ZM130.241 11.58C131.203 11.58 131.94 11.8227 132.453 12.308C132.967 12.784 133.223 13.4933 133.223 14.436V19H132.271V17.852C132.047 18.2347 131.716 18.5333 131.277 18.748C130.848 18.9627 130.335 19.07 129.737 19.07C128.916 19.07 128.263 18.874 127.777 18.482C127.292 18.09 127.049 17.572 127.049 16.928C127.049 16.3027 127.273 15.7987 127.721 15.416C128.179 15.0333 128.902 14.842 129.891 14.842H132.229V14.394C132.229 13.7593 132.052 13.2787 131.697 12.952C131.343 12.616 130.825 12.448 130.143 12.448C129.677 12.448 129.229 12.5273 128.799 12.686C128.37 12.8353 128.001 13.0453 127.693 13.316L127.245 12.574C127.619 12.2567 128.067 12.014 128.589 11.846C129.112 11.6687 129.663 11.58 130.241 11.58ZM129.891 18.286C130.451 18.286 130.932 18.16 131.333 17.908C131.735 17.6467 132.033 17.2733 132.229 16.788V15.584H129.919C128.659 15.584 128.029 16.0227 128.029 16.9C128.029 17.3293 128.193 17.67 128.519 17.922C128.846 18.1647 129.303 18.286 129.891 18.286ZM137.897 19.07C137.3 19.07 136.726 18.986 136.175 18.818C135.634 18.6407 135.209 18.4213 134.901 18.16L135.349 17.376C135.657 17.6187 136.044 17.8193 136.511 17.978C136.978 18.1273 137.463 18.202 137.967 18.202C138.639 18.202 139.134 18.0993 139.451 17.894C139.778 17.6793 139.941 17.3807 139.941 16.998C139.941 16.7273 139.852 16.5173 139.675 16.368C139.498 16.2093 139.274 16.0927 139.003 16.018C138.732 15.934 138.373 15.8547 137.925 15.78C137.328 15.668 136.847 15.556 136.483 15.444C136.119 15.3227 135.806 15.122 135.545 14.842C135.293 14.562 135.167 14.1747 135.167 13.68C135.167 13.064 135.424 12.56 135.937 12.168C136.45 11.776 137.164 11.58 138.079 11.58C138.555 11.58 139.031 11.6453 139.507 11.776C139.983 11.8973 140.375 12.0607 140.683 12.266L140.249 13.064C139.642 12.644 138.919 12.434 138.079 12.434C137.444 12.434 136.964 12.546 136.637 12.77C136.32 12.994 136.161 13.288 136.161 13.652C136.161 13.932 136.25 14.156 136.427 14.324C136.614 14.492 136.842 14.618 137.113 14.702C137.384 14.7767 137.757 14.856 138.233 14.94C138.821 15.052 139.292 15.164 139.647 15.276C140.002 15.388 140.305 15.5793 140.557 15.85C140.809 16.1207 140.935 16.494 140.935 16.97C140.935 17.614 140.664 18.1273 140.123 18.51C139.591 18.8833 138.849 19.07 137.897 19.07ZM146.651 18.552C146.464 18.72 146.231 18.8507 145.951 18.944C145.68 19.028 145.395 19.07 145.097 19.07C144.406 19.07 143.874 18.8833 143.501 18.51C143.127 18.1367 142.941 17.6093 142.941 16.928V12.476H141.625V11.636H142.941V10.026H143.935V11.636H146.175V12.476H143.935V16.872C143.935 17.3107 144.042 17.6467 144.257 17.88C144.481 18.104 144.798 18.216 145.209 18.216C145.414 18.216 145.61 18.1833 145.797 18.118C145.993 18.0527 146.161 17.9593 146.301 17.838L146.651 18.552ZM154.512 11.636L150.83 19.882C150.531 20.5727 150.186 21.0627 149.794 21.352C149.402 21.6413 148.93 21.786 148.38 21.786C148.025 21.786 147.694 21.73 147.386 21.618C147.078 21.506 146.811 21.338 146.587 21.114L147.05 20.372C147.423 20.7453 147.871 20.932 148.394 20.932C148.73 20.932 149.014 20.8387 149.248 20.652C149.49 20.4653 149.714 20.148 149.92 19.7L150.242 18.986L146.952 11.636H147.988L150.76 17.894L153.532 11.636H154.512ZM158.269 11.58C159.23 11.58 159.967 11.8227 160.481 12.308C160.994 12.784 161.251 13.4933 161.251 14.436V19H160.299V17.852C160.075 18.2347 159.743 18.5333 159.305 18.748C158.875 18.9627 158.362 19.07 157.765 19.07C156.943 19.07 156.29 18.874 155.805 18.482C155.319 18.09 155.077 17.572 155.077 16.928C155.077 16.3027 155.301 15.7987 155.749 15.416C156.206 15.0333 156.929 14.842 157.919 14.842H160.257V14.394C160.257 13.7593 160.079 13.2787 159.725 12.952C159.37 12.616 158.852 12.448 158.171 12.448C157.704 12.448 157.256 12.5273 156.827 12.686C156.397 12.8353 156.029 13.0453 155.721 13.316L155.273 12.574C155.646 12.2567 156.094 12.014 156.617 11.846C157.139 11.6687 157.69 11.58 158.269 11.58ZM157.919 18.286C158.479 18.286 158.959 18.16 159.361 17.908C159.762 17.6467 160.061 17.2733 160.257 16.788V15.584H157.947C156.687 15.584 156.057 16.0227 156.057 16.9C156.057 17.3293 156.22 17.67 156.547 17.922C156.873 18.1647 157.331 18.286 157.919 18.286ZM162.564 19H169.564V19.672H162.564V19ZM170.95 8.612H171.944V19H170.95V8.612ZM181.122 15.626H174.962C175.018 16.3913 175.312 17.012 175.844 17.488C176.376 17.9547 177.048 18.188 177.86 18.188C178.318 18.188 178.738 18.1087 179.12 17.95C179.503 17.782 179.834 17.5393 180.114 17.222L180.674 17.866C180.348 18.258 179.937 18.5567 179.442 18.762C178.957 18.9673 178.42 19.07 177.832 19.07C177.076 19.07 176.404 18.9113 175.816 18.594C175.238 18.2673 174.785 17.8193 174.458 17.25C174.132 16.6807 173.968 16.0367 173.968 15.318C173.968 14.5993 174.122 13.9553 174.43 13.386C174.748 12.8167 175.177 12.3733 175.718 12.056C176.269 11.7387 176.885 11.58 177.566 11.58C178.248 11.58 178.859 11.7387 179.4 12.056C179.942 12.3733 180.366 12.8167 180.674 13.386C180.982 13.946 181.136 14.59 181.136 15.318L181.122 15.626ZM177.566 12.434C176.857 12.434 176.26 12.6627 175.774 13.12C175.298 13.568 175.028 14.156 174.962 14.884H180.184C180.119 14.156 179.844 13.568 179.358 13.12C178.882 12.6627 178.285 12.434 177.566 12.434ZM192.343 11.58C193.267 11.58 193.991 11.846 194.513 12.378C195.045 12.91 195.311 13.694 195.311 14.73V19H194.317V14.828C194.317 14.0627 194.131 13.4793 193.757 13.078C193.393 12.6767 192.875 12.476 192.203 12.476C191.438 12.476 190.836 12.714 190.397 13.19C189.959 13.6567 189.739 14.3053 189.739 15.136V19H188.745V14.828C188.745 14.0627 188.559 13.4793 188.185 13.078C187.821 12.6767 187.299 12.476 186.617 12.476C185.861 12.476 185.259 12.714 184.811 13.19C184.373 13.6567 184.153 14.3053 184.153 15.136V19H183.159V11.636H184.111V12.98C184.373 12.532 184.737 12.1867 185.203 11.944C185.67 11.7013 186.207 11.58 186.813 11.58C187.429 11.58 187.961 11.7107 188.409 11.972C188.867 12.2333 189.207 12.6207 189.431 13.134C189.702 12.6487 190.089 12.2707 190.593 12C191.107 11.72 191.69 11.58 192.343 11.58ZM204.446 15.626H198.286C198.342 16.3913 198.636 17.012 199.168 17.488C199.7 17.9547 200.372 18.188 201.184 18.188C201.642 18.188 202.062 18.1087 202.444 17.95C202.827 17.782 203.158 17.5393 203.438 17.222L203.998 17.866C203.672 18.258 203.261 18.5567 202.766 18.762C202.281 18.9673 201.744 19.07 201.156 19.07C200.4 19.07 199.728 18.9113 199.14 18.594C198.562 18.2673 198.109 17.8193 197.782 17.25C197.456 16.6807 197.292 16.0367 197.292 15.318C197.292 14.5993 197.446 13.9553 197.754 13.386C198.072 12.8167 198.501 12.3733 199.042 12.056C199.593 11.7387 200.209 11.58 200.89 11.58C201.572 11.58 202.183 11.7387 202.724 12.056C203.266 12.3733 203.69 12.8167 203.998 13.386C204.306 13.946 204.46 14.59 204.46 15.318L204.446 15.626ZM200.89 12.434C200.181 12.434 199.584 12.6627 199.098 13.12C198.622 13.568 198.352 14.156 198.286 14.884H203.508C203.443 14.156 203.168 13.568 202.682 13.12C202.206 12.6627 201.609 12.434 200.89 12.434ZM208.458 19.07C207.86 19.07 207.286 18.986 206.736 18.818C206.194 18.6407 205.77 18.4213 205.462 18.16L205.91 17.376C206.218 17.6187 206.605 17.8193 207.072 17.978C207.538 18.1273 208.024 18.202 208.528 18.202C209.2 18.202 209.694 18.0993 210.012 17.894C210.338 17.6793 210.502 17.3807 210.502 16.998C210.502 16.7273 210.413 16.5173 210.236 16.368C210.058 16.2093 209.834 16.0927 209.564 16.018C209.293 15.934 208.934 15.8547 208.486 15.78C207.888 15.668 207.408 15.556 207.044 15.444C206.68 15.3227 206.367 15.122 206.106 14.842C205.854 14.562 205.728 14.1747 205.728 13.68C205.728 13.064 205.984 12.56 206.498 12.168C207.011 11.776 207.725 11.58 208.64 11.58C209.116 11.58 209.592 11.6453 210.068 11.776C210.544 11.8973 210.936 12.0607 211.244 12.266L210.81 13.064C210.203 12.644 209.48 12.434 208.64 12.434C208.005 12.434 207.524 12.546 207.198 12.77C206.88 12.994 206.722 13.288 206.722 13.652C206.722 13.932 206.81 14.156 206.988 14.324C207.174 14.492 207.403 14.618 207.674 14.702C207.944 14.7767 208.318 14.856 208.794 14.94C209.382 15.052 209.853 15.164 210.208 15.276C210.562 15.388 210.866 15.5793 211.118 15.85C211.37 16.1207 211.496 16.494 211.496 16.97C211.496 17.614 211.225 18.1273 210.684 18.51C210.152 18.8833 209.41 19.07 208.458 19.07ZM217.085 11.58C218.009 11.58 218.742 11.8507 219.283 12.392C219.834 12.924 220.109 13.7033 220.109 14.73V19H219.115V14.828C219.115 14.0627 218.924 13.4793 218.541 13.078C218.159 12.6767 217.613 12.476 216.903 12.476C216.11 12.476 215.48 12.714 215.013 13.19C214.556 13.6567 214.327 14.3053 214.327 15.136V19H213.333V8.612H214.327V12.924C214.598 12.4947 214.971 12.1633 215.447 11.93C215.923 11.6967 216.469 11.58 217.085 11.58ZM225.538 15.304L223.802 16.9V19H222.808V8.612H223.802V15.654L228.198 11.636H229.43L226.28 14.646L229.724 19H228.506L225.538 15.304ZM233.925 19.07C233.216 19.07 232.577 18.9113 232.007 18.594C231.438 18.2673 230.99 17.8193 230.663 17.25C230.337 16.6807 230.173 16.0367 230.173 15.318C230.173 14.5993 230.337 13.9553 230.663 13.386C230.99 12.8167 231.438 12.3733 232.007 12.056C232.577 11.7387 233.216 11.58 233.925 11.58C234.635 11.58 235.274 11.7387 235.843 12.056C236.413 12.3733 236.856 12.8167 237.173 13.386C237.5 13.9553 237.663 14.5993 237.663 15.318C237.663 16.0367 237.5 16.6807 237.173 17.25C236.856 17.8193 236.413 18.2673 235.843 18.594C235.274 18.9113 234.635 19.07 233.925 19.07ZM233.925 18.188C234.448 18.188 234.915 18.0713 235.325 17.838C235.745 17.5953 236.072 17.2547 236.305 16.816C236.539 16.3773 236.655 15.878 236.655 15.318C236.655 14.758 236.539 14.2587 236.305 13.82C236.072 13.3813 235.745 13.0453 235.325 12.812C234.915 12.5693 234.448 12.448 233.925 12.448C233.403 12.448 232.931 12.5693 232.511 12.812C232.101 13.0453 231.774 13.3813 231.531 13.82C231.298 14.2587 231.181 14.758 231.181 15.318C231.181 15.878 231.298 16.3773 231.531 16.816C231.774 17.2547 232.101 17.5953 232.511 17.838C232.931 18.0713 233.403 18.188 233.925 18.188Z" fill="white"/>
<a href="https://t.me/nastya_lemeshko">
<rect fill="black" fill-opacity="0" x="78.8047" y="-0.033" width="125.17" height="17.066"/>
</a>
<defs>
<linearGradient id="paint0_linear" x1="9.125" y1="4.6875" x2="27.1875" y2="27.4375" gradientUnits="userSpaceOnUse">
<stop stop-color="#F0CA99"/>
<stop offset="1" stop-color="#F8F0D6"/>
</linearGradient>
</defs>
</svg>
